<svg xmlns="http://www.w3.org/2000/svg" viewBox="0 0 24 24" aria-hidden="true">
  <path fill="currentColor" d="M20.447 20.452h-3.554v-5.569c0-1.328 
           -0.027-3.039-1.852-3.039-1.853 0-2.136 
           1.445-2.136 2.939v5.669h-3.554V9h3.414v1.561 
           h0.049c0.476-0.9 1.637-1.852 3.369-1.852 
           3.602 0 4.268 2.372 4.268 5.456v6.287zM5.337 
           7.433c-1.144 0-2.069-0.926-2.069-2.069 
           0-1.144 0.925-2.069 2.069-2.069 
           1.144 0 2.069 0.925 2.069 2.069 
           0 1.143-0.925 2.069-2.069 2.069zM6.881 
           20.452H3.793V9h3.088v11.452zM22.225 
           0H1.771C0.792 0 0 0.771 0 1.723v20.555C0 
           23.229 0.792 24 1.771 24h20.451c0.979 
           0 1.771-0.771 1.771-1.723V1.723C24 
           0.771 23.208 0 22.225 0z"></path>
</svg>
