<svg xmlns="http://www.w3.org/2000/svg" viewBox="0 0 24 24" aria-hidden="true">
  <path fill="currentColor" d="M23.953 4.569c-0.885 0.392-1.83 0.656-2.825 0.775 
           1.014-0.608 1.794-1.574 2.163-2.724-0.951 0.564-2.005 0.974-3.127 1.195
           -0.897-0.957-2.178-1.555-3.594-1.555-2.72 0-4.924 2.204-4.924 4.924 0 0.386 
           0.044 0.762 0.128 1.124-4.09-0.205-7.719-2.164-10.148-5.144-0.424 
           0.729-0.666 1.577-0.666 2.476 0 1.708 0.87 3.213 2.188 4.096-0.807-0.026
           -1.566-0.247-2.228-0.616v0.062c0 2.386 1.697 4.374 3.946 4.827-0.413 
           0.112-0.849 0.171-1.294 0.171-0.317 0-0.626-0.031-0.927-0.089 
           0.627 1.956 2.444 3.379 4.6 3.419-1.68 1.318-3.809 
           2.105-6.102 2.105-0.396 0-0.787-0.023-1.174-0.069 
           2.179 1.397 4.768 2.212 7.548 2.212 9.054 0 
           14.001-7.496 14.001-13.986 0-0.213-0.005-0.425-0.014-0.636
           0.961-0.695 1.8-1.562 2.46-2.549z"></path>
</svg>
